<svg xmlns="http://www.w3.org/2000/svg" width="100.677" height="43.386" viewBox="0 0 100.677 43.386">
  <path id="Icon_ionic-ios-glasses" data-name="Icon ionic-ios-glasses" d="M99.724,29.527h-1.4a22.066,22.066,0,0,0-6.433-12.46A20.612,20.612,0,0,0,77.58,11.243a20.4,20.4,0,0,0-12.686,4.379,21.592,21.592,0,0,0-6.885,9.413,9.885,9.885,0,0,0-5.35-1.648,9.7,9.7,0,0,0-5.35,1.648,21.244,21.244,0,0,0-6.885-9.413,20.4,20.4,0,0,0-12.686-4.379,20.667,20.667,0,0,0-14.311,5.779A22.4,22.4,0,0,0,6.993,29.55h-1.4a3.388,3.388,0,0,0,0,6.772h1.4A22.057,22.057,0,0,0,13.426,48.8a20.612,20.612,0,0,0,14.311,5.824c11.58,0,21.016-9.707,21.016-21.648v-.045a3.949,3.949,0,0,1,7.81,0v.023C56.564,44.9,66,54.606,77.58,54.606a20.433,20.433,0,0,0,14.311-5.824,22.119,22.119,0,0,0,6.433-12.506h1.4a3.376,3.376,0,0,0,0-6.749Z" transform="translate(-2.32 -11.243)"/>
</svg>
