<svg xmlns="http://www.w3.org/2000/svg" width="103.5" height="80.501" viewBox="0 0 103.5 80.501">
  <path id="Icon_awesome-glasses" data-name="Icon awesome-glasses" d="M103.159,46.88,95.01,14.229A15.8,15.8,0,0,0,74.671,3.063l-2.74.913a2.873,2.873,0,0,0-1.818,3.637l.909,2.728a2.874,2.874,0,0,0,3.635,1.818l2.368-.789a7.684,7.684,0,0,1,5.958.311,7.12,7.12,0,0,1,3.66,4.64l6.911,27.64a49.728,49.728,0,0,0-14.591-2.239,47.132,47.132,0,0,0-20.637,4.8H45.177a47.087,47.087,0,0,0-20.639-4.807A49.731,49.731,0,0,0,9.946,43.958l6.911-27.641a7.114,7.114,0,0,1,3.662-4.638,7.68,7.68,0,0,1,5.957-.311l2.366.789a2.874,2.874,0,0,0,3.635-1.818l.909-2.728a2.873,2.873,0,0,0-1.818-3.637l-2.74-.913A15.8,15.8,0,0,0,8.488,14.225L.341,46.88A11.539,11.539,0,0,0,0,49.663V62.286A20.584,20.584,0,0,0,20.7,82.751h6.67A20.605,20.605,0,0,0,48.013,63.817l.526-6.941h6.424l.526,6.941A20.6,20.6,0,0,0,76.13,82.751H82.8a20.583,20.583,0,0,0,20.7-20.463V49.665A11.542,11.542,0,0,0,103.159,46.88ZM36.545,62.947a9.144,9.144,0,0,1-9.175,8.3H20.7a9.1,9.1,0,0,1-9.2-8.965V55.541a39.007,39.007,0,0,1,13.042-2.322,35.255,35.255,0,0,1,12.566,2.322ZM92,62.288a9.094,9.094,0,0,1-9.2,8.963H76.13a9.142,9.142,0,0,1-9.175-8.3l-.562-7.407a35.267,35.267,0,0,1,12.569-2.322A39,39,0,0,1,92,55.543v6.745Z" transform="translate(0 -2.25)"/>
</svg>
